# xmcd
#
# Track frame offsets: 
#        150
#        14258
#        53968
#        74407
#        97943
#        121015
#        153233
#        174846
#        186134
#        217755
#        240458
#
# Disc length: 3501 seconds
#
# Revision: 0
# Processed by: cddbd v1.5.2PL0 Copyright (c) Steve Scherf et al.
# Submitted via: ExactAudioCopy v0.99pb3
#
DISCID=7f0dab0b
DTITLE=Krzak - Radio Concert
DYEAR=2006
DGENRE=Blues rock
TTITLE0=Kansas - Down the road
TTITLE1=Blues E -  dur
TTITLE2=Iluzyt
TTITLE3=Ontario
TTITLE4=Przewrotna samba
TTITLE5=Blues h - mol smuteczek
TTITLE6=Czakus
TTITLE7=Skalki
TTITLE8=Dla Fredka
TTITLE9=Sciepka
TTITLE10=Winter rock
EXTD=
EXTT0=
EXTT1=
EXTT2=
EXTT3=
EXTT4=
EXTT5=
EXTT6=
EXTT7=
EXTT8=
EXTT9=
EXTT10=
PLAYORDER=
